<?xml version="1.0" standalone="no"?>
<!DOCTYPE svg PUBLIC "-//W3C//DTD SVG 20010904//EN"
 "http://www.w3.org/TR/2001/REC-SVG-20010904/DTD/svg10.dtd">
<svg version="1.0" xmlns="http://www.w3.org/2000/svg"
 width="246.000000pt" height="246.000000pt" viewBox="0 0 246.000000 246.000000"
 preserveAspectRatio="xMidYMid meet">
<metadata>
Created by potrace 1.11, written by Peter Selinger 2001-2013
</metadata>
<g transform="translate(0.000000,246.000000) scale(0.100000,-0.100000)"
fill="#000000" stroke="none">
<path d="M1200 2392 c-14 -9 -123 -81 -243 -160 -119 -79 -220 -149 -224 -156
-4 -6 4 -4 17 5 48 30 355 207 417 238 l61 32 41 -20 c33 -17 245 -139 441
-254 72 -42 9 4 -190 139 -113 76 -223 151 -245 166 -47 32 -43 32 -75 10z"/>
<path d="M493 1647 c-4 -7 -9 -209 -11 -449 l-4 -438 101 0 101 0 0 165 0 165
56 0 c49 0 59 -4 83 -29 16 -17 42 -69 60 -118 60 -165 87 -193 171 -179 76
12 110 41 81 71 -5 6 -31 62 -57 125 -32 77 -59 126 -82 148 -33 32 -33 34
-15 47 43 30 83 74 105 116 19 36 23 59 22 126 0 72 -4 87 -28 124 -37 55 -71
86 -124 110 -37 17 -68 20 -247 24 -149 2 -207 0 -212 -8z m352 -152 c39 -16
56 -48 59 -110 5 -94 -28 -124 -145 -134 l-79 -7 0 133 0 133 65 0 c36 0 81
-7 100 -15z"/>
<path d="M1290 1210 l0 -450 100 0 100 0 0 190 0 190 55 0 c86 0 105 -26 171
-224 37 -114 73 -156 132 -156 51 0 122 27 122 46 0 8 -11 36 -23 62 -13 26
-43 101 -67 166 -35 95 -52 128 -85 163 -23 23 -49 43 -58 43 -23 0 -22 3 17
57 61 87 193 339 183 350 -13 12 -115 15 -149 4 -35 -12 -68 -58 -163 -236
-50 -93 -62 -105 -102 -105 l-33 0 0 175 0 175 -100 0 -100 0 0 -450z"/>
<path d="M1610 364 c-154 -124 -379 -294 -390 -294 -7 0 -276 195 -448 325
-14 11 -23 14 -19 8 4 -7 74 -67 155 -135 81 -67 149 -125 152 -128 3 -3 40
-34 82 -69 l78 -64 37 29 c39 29 262 223 343 298 25 22 64 58 88 79 75 66 30
38 -78 -49z"/>
</g>
</svg>
